<?xml version="1.0" encoding="UTF-8"?>
<svg id="Layer_1" xmlns="http://www.w3.org/2000/svg" version="1.1" viewBox="0 0 600 380">
  <!-- Generator: Adobe Illustrator 29.3.0, SVG Export Plug-In . SVG Version: 2.1.0 Build 38)  -->
  <defs>
    <style>
      .st0 {
        fill: none;
        stroke: #000;
        stroke-miterlimit: 10;
      }
    </style>
  </defs>
  <path class="st0" d="M242.1,169.9s56.8-4.2,56.8-70.8S252.5,0,193.6,0H0v372.1h193.6s118.2,3.7,118.2-109.8c0,0,5.2-92.4-69.7-92.4h0ZM179.7,66.1h13.9s26.3,0,26.3,38.7-15.5,44.3-33,44.3h-101.6v-83h94.4ZM188.2,306h-102.8v-99.4h108.3s39.2-.5,39.2,51.1-29.3,48-44.7,48.3h0ZM469.5,94.7c-143.1,0-143,143-143,143,0,0-9.8,142.2,143,142.2,0,0,127.3,7.3,127.3-98.9h-65.5s2.2,40-59.7,40c0,0-65.5,4.4-65.5-64.7h192.8s21.1-161.5-129.5-161.5h0ZM405.5,206.5s8-57.4,65.5-57.4,56.8,57.4,56.8,57.4h-122.2ZM542.9,67.7h-153.5V21.9h153.5v45.8h0Z"/>
</svg>