<?xml version="1.0" encoding="UTF-8"?>
<svg id="Layer_1" xmlns="http://www.w3.org/2000/svg" version="1.1" viewBox="0 0 700 682.7">
  <!-- Generator: Adobe Illustrator 29.3.0, SVG Export Plug-In . SVG Version: 2.1.0 Build 38)  -->
  <defs>
    <style>
      .st0 {
        fill: #fff;
      }
    </style>
  </defs>
  <path class="st0" d="M350,0C156.7,0,0,156.7,0,350s100.3,285.8,239.4,332.1c17.5,3.2,23.9-7.6,23.9-16.8s-.3-35.9-.5-65.2c-97.4,21.2-117.9-41.3-117.9-41.3-15.9-40.5-38.9-51.2-38.9-51.2-31.8-21.7,2.4-21.3,2.4-21.3,35.1,2.5,53.7,36.1,53.7,36.1,31.2,53.5,81.9,38,101.9,29.1,3.1-22.6,12.2-38.1,22.2-46.8-77.7-8.9-159.5-38.9-159.5-173s13.7-69.4,36.1-93.9c-3.6-8.8-15.6-44.4,3.4-92.6,0,0,29.4-9.4,96.3,35.9,27.9-7.8,57.9-11.6,87.6-11.8,29.7.1,59.7,4,87.7,11.8,66.8-45.3,96.2-35.9,96.2-35.9,19.1,48.2,7.1,83.8,3.4,92.6,22.4,24.5,36,55.7,36,93.9,0,134.4-81.9,164-159.8,172.7,12.6,10.9,23.7,32.2,23.7,64.8,0,46.8-.4,84.5-.4,96.1s6.3,20.2,24,16.8c139-46.3,239.1-177.5,239.1-332.1S543.3,0,350,0"/>
  <path class="st0" d="M131.1,498.6c-.8,1.7-3.5,2.3-6,1.1-2.5-1.1-4-3.5-3.1-5.3.8-1.8,3.5-2.3,6-1.1,2.5,1.1,4,3.5,3.1,5.3M148.3,513.9c-1.7,1.5-4.9.8-7.1-1.6-2.3-2.4-2.7-5.7-1-7.3,1.7-1.5,4.9-.8,7.2,1.6,2.3,2.5,2.7,5.7,1,7.3M160.1,533.6c-2.1,1.5-5.7,0-7.8-3-2.1-3.1-2.1-6.8,0-8.3,2.2-1.5,5.6-.2,7.8,2.9,2.1,3.2,2.1,6.9,0,8.4M180.1,556.4c-1.9,2.1-6,1.5-9-1.3-3.1-2.8-3.9-6.8-2-8.9,1.9-2.1,6-1.5,9.1,1.3,3,2.8,4,6.9,1.9,8.9M205.9,564.1c-.8,2.7-4.8,4-8.7,2.8-4-1.2-6.5-4.4-5.8-7.2.8-2.8,4.8-4.1,8.8-2.8,4,1.2,6.5,4.4,5.7,7.2M235.3,567.3c0,2.9-3.3,5.3-7.4,5.3-4.2,0-7.6-2.2-7.6-5.1,0-2.9,3.3-5.3,7.5-5.4,4.2,0,7.6,2.2,7.6,5.1M264.1,566.2c.5,2.8-2.4,5.7-6.5,6.5-4.1.7-7.8-1-8.3-3.8-.5-2.9,2.4-5.8,6.5-6.5,4.1-.7,7.8,1,8.4,3.8"/>
</svg>