<?xml version="1.0" encoding="UTF-8"?>
<svg id="Layer_1" xmlns="http://www.w3.org/2000/svg" version="1.1" viewBox="0 0 600 600">
  <!-- Generator: Adobe Illustrator 29.3.0, SVG Export Plug-In . SVG Version: 2.1.0 Build 38)  -->
  <defs>
    <style>
      .st0 {
        fill: #fff;
      }
    </style>
  </defs>
  <path class="st0" d="M555.7,0H44.3C19.9,0,0,19.3,0,43v514.1c0,23.7,19.9,43,44.3,43h511.3c24.5,0,44.3-19.2,44.3-43V43c0-23.7-19.9-43-44.3-43ZM92.6,502.1V232h89.8v270.1h-89.8ZM137.5,195.1h0s-.6,0-.6,0c-30.1,0-49.6-20.7-49.6-46.7s20.1-46.7,50.8-46.7,49.6,20.2,50.2,46.7c0,25.9-19.5,46.7-50.8,46.7ZM506.1,502.1h-89.8v-144.5c0-36.3-13-61.1-45.5-61.1s-39.6,16.7-46.1,32.8c-2.4,5.8-3,13.8-3,21.9v150.8h-89.8s1.2-244.8,0-270.1h89.8v38.2c11.9-18.4,33.3-44.6,80.9-44.6s103.4,38.6,103.4,121.6v154.9Z"/>
</svg>