<?xml version="1.0" encoding="UTF-8"?>
<svg id="Layer_1" xmlns="http://www.w3.org/2000/svg" version="1.1" viewBox="0 0 214.3 150">
  <!-- Generator: Adobe Illustrator 29.3.0, SVG Export Plug-In . SVG Version: 2.1.0 Build 38)  -->
  <path d="M209.8,23.4c-2.5-9.2-9.7-16.5-18.9-19C174.1,0,107.1,0,107.1,0c0,0-67,0-83.7,4.5C14.2,6.9,6.9,14.2,4.5,23.4,0,40.1,0,75,0,75c0,0,0,34.9,4.5,51.6,2.5,9.2,9.7,16.5,19,18.9,16.7,4.5,83.7,4.5,83.7,4.5,0,0,67,0,83.7-4.5,9.2-2.5,16.5-9.7,18.9-18.9,4.5-16.7,4.5-51.6,4.5-51.6,0,0,0-34.9-4.5-51.6h0ZM85.7,107.1V42.9l55.7,32.1s-55.7,32.1-55.7,32.1Z"/>
</svg>