<?xml version="1.0" encoding="UTF-8"?><svg id="Layer_1" xmlns="http://www.w3.org/2000/svg" viewBox="0 0 214.29 150"><defs><style>.cls-1{fill:#fff;stroke-width:0px;}</style></defs><path class="cls-1" d="M209.81,23.42c-2.46-9.22-9.73-16.48-18.95-18.95C174.15,0,107.14,0,107.14,0c0,0-67.01,0-83.72,4.48C14.2,6.94,6.94,14.2,4.48,23.42,0,40.13,0,75,0,75c0,0,0,34.87,4.48,51.58,2.46,9.22,9.73,16.48,18.95,18.95,16.71,4.48,83.72,4.48,83.72,4.48,0,0,67.01,0,83.72-4.48,9.22-2.46,16.48-9.73,18.95-18.95,4.48-16.71,4.48-51.58,4.48-51.58,0,0,0-34.87-4.48-51.58ZM85.71,107.14V42.86l55.67,32.14-55.67,32.14Z"/></svg>